<?xml version="1.0" encoding="utf-8"?>
<!-- Generator: Adobe Illustrator 22.0.1, SVG Export Plug-In . SVG Version: 6.00 Build 0)  -->
<svg version="1.1" id="Layer_1" xmlns="http://www.w3.org/2000/svg" xmlns:xlink="http://www.w3.org/1999/xlink" x="0px" y="0px"
	 viewBox="0 0 100 100" style="enable-background:new 0 0 100 100;" xml:space="preserve">
<style type="text/css">
	.st0{fill:#F26739;}
</style>
<g>
	<path class="st0" d="M9.4,99C3.5,96.8,1.6,91.9,1,86.3c-0.3-2.4,0.1-4.8,1.5-6.9C3.4,78,4.6,77,6.2,76.6c1.2-0.3,2.4-0.7,3.7-1
		c-1.8-4.4-1.2-8.6,0.7-12.7c0.8-1.8,2-3.4,3.6-4.6c1.8-1.4,3.8-2,6.1-1.3c0.3,0.1,0.6,0.1,0.8,0.2c-0.5-1.8-1-3.5-1.3-5.2
		c-0.7-3.7,0-7.3,2-10.4c1.8-2.7,3.9-5.2,5.9-7.8c1.8-2.3,3.6-4.6,4.5-7.5c0.7-2.4,0.7-4.8,0.1-7.3c-0.2-0.8-0.2-1.6,0.4-2.2
		c0.7-0.7,1.6-0.8,2.5-0.2c2.9,2,5.4,4.4,7,7.6c0.1,0.1,0.1,0.3,0.2,0.4c0,0.1,0.1,0.1,0,0c1.6-2.4,3.2-4.9,5-7.2
		c2.5-3.3,2.9-6.8,1.2-10.5c-0.4-0.9-0.8-1.8-1.3-2.7c-0.4-0.8-0.5-1.6,0.1-2.3c0.6-0.8,1.4-0.9,2.3-0.5C57.1,3.8,62,8.9,64.3,16.3
		c1.4,4.3,1.5,8.8,1.2,13.3c0.4-0.5,0.8-0.9,1.1-1.4c1.4-1.8,2.2-3.9,2.7-6.2c0.3-1.5,1.8-2.1,2.9-1.3c0.4,0.2,0.6,0.6,0.9,1
		c3.2,5,5.4,10.4,6.5,16.2c1.2,6.2,1.1,12.5-0.5,18.7c0,0.1,0,0.2,0,0.3c1-0.1,2-0.3,3-0.2c2.5,0.3,4.4,1.7,5.8,3.7
		c3.2,4.6,4.3,9.5,2.3,14.9c0,0.1,0,0.1,0,0.3c0.9,0.2,1.8,0.6,2.8,0.7c3.6,0.7,5.2,3.2,5.9,6.5c0.1,0.2,0.1,0.5,0.2,0.7
		c0,1.2,0,2.4,0,3.6c-0.1,0.3-0.1,0.5-0.2,0.8c-1,5-3,9.2-8.2,11c-0.8,0-1.5,0-2.3,0c-0.1-0.1-0.2-0.2-0.3-0.2
		c-12.1-3.3-24.2-6.5-36.4-9.8c-0.9-0.2-1.8-0.4-2.8-0.1c-10.1,2.8-20.3,5.4-30.4,8.2c-2.3,0.6-4.5,1.3-6.8,1.9
		C11,99,10.2,99,9.4,99z M34.7,60.7c0-0.4,0-0.8,0-1.2c-0.4-5.2,1.5-9.5,5.1-13.2c0.6-0.7,1.4-0.9,2.2-0.7c0.8,0.3,1.2,1,1.3,1.8
		c0.3,1.8,0.7,3.5,1.9,5c4.1-4.2,6.6-8.9,6-14.9c-0.1-1,0.1-1.7,1-2.2c0.8-0.4,1.6-0.4,2.2,0.3c1.6,1.9,3.2,3.9,4.7,5.9
		c0.6,0.9,0.2,2.1-0.6,2.6c-0.9,0.5-1.9,0.3-2.6-0.5c-0.3-0.4-0.6-0.8-0.9-1.3c-0.1,0.3-0.1,0.4-0.1,0.6c0,0.2-0.1,0.3-0.1,0.5
		c-1.2,5.4-4.1,9.7-8.3,13.1c-0.9,0.8-1.8,0.8-2.7,0c-0.8-0.8-1.6-1.7-2.3-2.7c-0.4-0.6-0.7-1.3-1.1-2.1c-2,3-2.3,6.3-1.5,9.6
		c0.1,0.3,0.5,0.6,0.8,0.6c3.2,0.9,6.5,1.8,9.8,2.6c0.4,0.1,0.8,0.1,1.1,0c2.6-0.7,5.1-1.3,7.6-2.1c0.3-0.1,0.6-0.4,0.7-0.7
		c0.2-1,0.3-2,0.5-2.9c0.2-1.3,1.2-1.9,2.3-1.7c1,0.2,1.6,1.2,1.5,2.3c-0.1,0.5-0.1,1.1-0.2,1.7c3.9-1,7.5-2,11.2-3
		c0.3-0.1,0.6-0.4,0.7-0.7c0.6-2.4,1.3-4.8,1.6-7.3c0.9-7.8-0.7-15.3-4.1-22.3c-0.1-0.3-0.3-0.6-0.5-0.9c-1.8,3.7-4.3,6.5-7.7,8.6
		c-0.8,0.5-1.6,0.7-2.5,0.1c-0.9-0.6-0.8-1.5-0.7-2.5c0.3-2.7,0.8-5.4,0.9-8.1c0.2-5.5-1.2-10.6-4.8-14.8c-1.1-1.3-2.5-2.4-3.7-3.6
		C53.1,7,53,7.1,52.9,7.2C53,7.4,53,7.7,53.1,7.9c1,3.7,0.4,7.1-1.7,10.2c-0.8,1.2-1.7,2.5-2.6,3.7c-1.6,2.2-3.1,4.6-3.6,7.3
		c-0.4,1.8-0.5,3.7-0.7,5.5c-0.1,1.1-0.9,1.8-2,1.8c-1,0-1.8-0.8-1.9-1.9c0-0.5,0-1.1,0-1.6c-0.2-3.3-1-6.4-3-9
		c-0.3-0.4-0.6-0.8-1-1.2c-0.1,1-0.2,1.9-0.4,2.7c-0.6,3.5-2.3,6.5-4.5,9.3c-1.9,2.4-3.8,4.6-5.6,7c-1.7,2.3-2.8,4.8-2.8,7.8
		c0.1,3.2,1.3,6,2.8,8.7c0.1,0.2,0.4,0.4,0.7,0.5C29.4,59.3,32,60,34.7,60.7z M87.1,67.8c-0.7-2.9-1.7-5.5-4.4-7.1
		c-0.5-0.3-1.3-0.3-1.9-0.1C79,61,77.3,61.5,75.6,62C56.4,67.1,37.2,72.3,18,77.4c-1.8,0.5-3.5,1-5.4,1.5c1.9,2,3.1,4.3,3.8,6.8
		c0.7,2.6,0.8,5.1,0.2,7.8c0.4-0.1,0.7-0.2,1-0.2c22.3-6,44.6-11.9,66.9-17.9c1.6-0.4,2.6-1.8,2.5-3.5c-0.8,0.2-1.5,0.4-2.3,0.6
		c-1.2,0.3-2.2-0.2-2.5-1.3c-0.3-1.1,0.3-2.1,1.5-2.5C84.8,68.5,85.9,68.2,87.1,67.8z M42.1,66.9c0-0.1,0-0.1,0-0.2
		c-0.2-0.1-0.4-0.2-0.6-0.2c-7.3-1.9-14.6-3.9-21.8-5.8c-2-0.5-4.3,0.8-4.8,2.8c1,0.3,2.1,0.5,3.1,0.9c0.9,0.3,1.3,1,1.3,1.9
		c-0.1,0.9-0.6,1.5-1.5,1.7c-0.3,0.1-0.8,0-1.1-0.1c-1.1-0.3-2.2-0.6-3.4-0.8c-0.8,3.1-0.5,6,0.8,7.3C23.4,72,32.7,69.5,42.1,66.9z
		 M57.8,86.6c0,0.1,0,0.1,0,0.2c8.5,2.3,17,4.5,25.6,6.8c-1-5.6,0.3-10.5,3.8-14.9c-4.8,1.3-9.6,2.6-14.5,3.9c0.9,1,1.1,1.9,0.6,2.7
		c-0.5,0.9-1.3,1.1-2.6,0.7c-1.4-0.4-2.8-0.8-4.2-1.1c-0.5-0.1-1.1-0.3-1.6-0.2C62.5,85.3,60.2,85.9,57.8,86.6z M13.4,90.1
		c-0.1,0-0.1-0.1-0.2-0.1c-0.1-0.8-0.1-1.7-0.3-2.5c-0.6-2.5-1.5-4.9-3.6-6.5c-1.6-1.3-3-0.9-3.8,1c-0.1,0.2-0.2,0.5-0.2,0.7
		C4.3,87,5.3,90.7,8.1,93.9c0.3,0.4,0.7,0.6,1.1,0.9c1.3,0.8,2.4,0.5,3-0.8C12.8,92.7,13,91.4,13.4,90.1z M86.9,90
		c0,1.5,0.1,2.9,0.9,4.1c0.7,1.1,1.6,1.4,2.7,0.7c0.6-0.3,1.2-0.8,1.7-1.4c2.2-2.5,3-5.6,2.9-8.9c0-1-0.3-2-0.8-2.9
		c-0.7-1.5-1.9-1.8-3.3-0.9c-0.6,0.4-1.1,0.9-1.5,1.4C87.8,84.5,87,87.1,86.9,90z"/>
	<path class="st0" d="M58.8,50.5c0-1.1,0.8-1.9,2-1.9c1.1,0,1.9,0.8,1.9,1.9c0,1.1-0.8,1.9-1.9,1.9C59.7,52.5,58.8,51.6,58.8,50.5z"
		/>
	<path class="st0" d="M57.9,71.5c1.2,0,2,0.6,2.2,1.4c0.2,0.9-0.1,1.9-1,2.2c-1.6,0.5-3.2,1-4.9,1.3c-0.9,0.2-1.7-0.5-2-1.4
		c-0.3-0.8,0.1-1.9,0.9-2.2C54.8,72.3,56.6,71.8,57.9,71.5z"/>
	<path class="st0" d="M25.4,85c-1.3,0-2.1-0.6-2.3-1.5c-0.2-0.8,0.3-1.8,1.1-2.1c1.6-0.5,3.2-0.9,4.8-1.3c0.9-0.2,1.8,0.4,2,1.2
		c0.3,0.9,0,2-0.9,2.3C28.5,84.2,26.7,84.6,25.4,85z"/>
</g>
</svg>
